<mxfile host="app.diagrams.net" modified="2020-11-18T10:58:53.311Z" agent="5.0 (Windows NT 10.0; Win64; x64) AppleWebKit/537.36 (KHTML, like Gecko) Chrome/86.0.4240.198 Safari/537.36" etag="Ayu1FkE8xLylbkNBDw-d" version="13.9.9" type="github">
  <diagram id="L_JhOVF2J9dcczpxeFNC" name="Page-1">
    <mxGraphModel dx="1573" dy="1020" grid="1" gridSize="10" guides="1" tooltips="1" connect="1" arrows="1" fold="1" page="1" pageScale="1" pageWidth="1600" pageHeight="900" math="0" shadow="0">
      <root>
        <mxCell id="0" />
        <mxCell id="1" parent="0" />
        <mxCell id="hF53dLe3txAoutBQHYvb-9" style="rounded=0;orthogonalLoop=1;jettySize=auto;html=1;exitX=1;exitY=0.5;exitDx=0;exitDy=0;entryX=0;entryY=0.5;entryDx=0;entryDy=0;" parent="1" source="hF53dLe3txAoutBQHYvb-4" target="hF53dLe3txAoutBQHYvb-6" edge="1">
          <mxGeometry relative="1" as="geometry" />
        </mxCell>
        <mxCell id="hF53dLe3txAoutBQHYvb-10" style="rounded=0;orthogonalLoop=1;jettySize=auto;html=1;exitX=1;exitY=0.5;exitDx=0;exitDy=0;entryX=0;entryY=0.5;entryDx=0;entryDy=0;" parent="1" source="hF53dLe3txAoutBQHYvb-4" target="hF53dLe3txAoutBQHYvb-8" edge="1">
          <mxGeometry relative="1" as="geometry" />
        </mxCell>
        <mxCell id="hF53dLe3txAoutBQHYvb-4" value="&lt;span style=&quot;font-size: 22px&quot;&gt;论文架构&lt;/span&gt;" style="rounded=1;whiteSpace=wrap;html=1;" parent="1" vertex="1">
          <mxGeometry x="50" y="350" width="170" height="90" as="geometry" />
        </mxCell>
        <mxCell id="hF53dLe3txAoutBQHYvb-13" style="edgeStyle=none;rounded=0;orthogonalLoop=1;jettySize=auto;html=1;exitX=1;exitY=0.5;exitDx=0;exitDy=0;entryX=0;entryY=0.5;entryDx=0;entryDy=0;" parent="1" source="hF53dLe3txAoutBQHYvb-6" target="hF53dLe3txAoutBQHYvb-11" edge="1">
          <mxGeometry relative="1" as="geometry" />
        </mxCell>
        <mxCell id="hF53dLe3txAoutBQHYvb-14" style="edgeStyle=none;rounded=0;orthogonalLoop=1;jettySize=auto;html=1;exitX=1;exitY=0.5;exitDx=0;exitDy=0;entryX=0;entryY=0.5;entryDx=0;entryDy=0;" parent="1" source="hF53dLe3txAoutBQHYvb-11" target="hF53dLe3txAoutBQHYvb-12" edge="1">
          <mxGeometry relative="1" as="geometry" />
        </mxCell>
        <mxCell id="hF53dLe3txAoutBQHYvb-6" value="&lt;font style=&quot;font-size: 20px&quot;&gt;蓝牙密接&lt;/font&gt;" style="shape=process;whiteSpace=wrap;html=1;backgroundOutline=1;" parent="1" vertex="1">
          <mxGeometry x="310" y="210" width="220" height="100" as="geometry" />
        </mxCell>
        <mxCell id="hF53dLe3txAoutBQHYvb-17" style="edgeStyle=none;rounded=0;orthogonalLoop=1;jettySize=auto;html=1;exitX=1;exitY=0.5;exitDx=0;exitDy=0;entryX=0;entryY=0.597;entryDx=0;entryDy=0;entryPerimeter=0;" parent="1" source="hF53dLe3txAoutBQHYvb-8" target="hF53dLe3txAoutBQHYvb-15" edge="1">
          <mxGeometry relative="1" as="geometry" />
        </mxCell>
        <mxCell id="hF53dLe3txAoutBQHYvb-18" style="edgeStyle=none;rounded=0;orthogonalLoop=1;jettySize=auto;html=1;exitX=1;exitY=0.5;exitDx=0;exitDy=0;entryX=0;entryY=0.5;entryDx=0;entryDy=0;" parent="1" source="hF53dLe3txAoutBQHYvb-15" target="hF53dLe3txAoutBQHYvb-16" edge="1">
          <mxGeometry relative="1" as="geometry" />
        </mxCell>
        <mxCell id="hF53dLe3txAoutBQHYvb-8" value="&lt;font style=&quot;font-size: 20px&quot;&gt;动作识别&lt;/font&gt;" style="shape=process;whiteSpace=wrap;html=1;backgroundOutline=1;" parent="1" vertex="1">
          <mxGeometry x="310" y="490" width="220" height="100" as="geometry" />
        </mxCell>
        <mxCell id="hF53dLe3txAoutBQHYvb-11" value="&lt;font style=&quot;font-size: 20px&quot;&gt;蓝牙技术优缺点&lt;/font&gt;" style="ellipse;whiteSpace=wrap;html=1;" parent="1" vertex="1">
          <mxGeometry x="580" y="260" width="210" height="110" as="geometry" />
        </mxCell>
        <mxCell id="hF53dLe3txAoutBQHYvb-21" style="edgeStyle=none;rounded=0;orthogonalLoop=1;jettySize=auto;html=1;exitX=1;exitY=0.5;exitDx=0;exitDy=0;entryX=0;entryY=0.5;entryDx=0;entryDy=0;" parent="1" source="hF53dLe3txAoutBQHYvb-12" target="hF53dLe3txAoutBQHYvb-20" edge="1">
          <mxGeometry relative="1" as="geometry">
            <mxPoint x="1180" y="370" as="targetPoint" />
          </mxGeometry>
        </mxCell>
        <mxCell id="hF53dLe3txAoutBQHYvb-12" value="&lt;font style=&quot;font-size: 20px&quot;&gt;基于蓝牙技术的密接&lt;/font&gt;" style="ellipse;whiteSpace=wrap;html=1;" parent="1" vertex="1">
          <mxGeometry x="860" y="140" width="210" height="110" as="geometry" />
        </mxCell>
        <mxCell id="hF53dLe3txAoutBQHYvb-15" value="&lt;span style=&quot;font-size: 20px&quot;&gt;RNN深度学习优缺点&lt;/span&gt;" style="ellipse;whiteSpace=wrap;html=1;" parent="1" vertex="1">
          <mxGeometry x="580" y="420" width="210" height="110" as="geometry" />
        </mxCell>
        <mxCell id="hF53dLe3txAoutBQHYvb-23" style="edgeStyle=none;rounded=0;orthogonalLoop=1;jettySize=auto;html=1;exitX=1;exitY=0.5;exitDx=0;exitDy=0;entryX=0;entryY=0.5;entryDx=0;entryDy=0;" parent="1" source="hF53dLe3txAoutBQHYvb-16" target="hF53dLe3txAoutBQHYvb-20" edge="1">
          <mxGeometry relative="1" as="geometry">
            <mxPoint x="1180" y="370" as="targetPoint" />
          </mxGeometry>
        </mxCell>
        <mxCell id="hF53dLe3txAoutBQHYvb-16" value="&lt;span style=&quot;font-size: 20px&quot;&gt;基于LSTM的深度学习&lt;br&gt;&lt;/span&gt;" style="ellipse;whiteSpace=wrap;html=1;" parent="1" vertex="1">
          <mxGeometry x="860" y="580" width="210" height="110" as="geometry" />
        </mxCell>
        <mxCell id="hF53dLe3txAoutBQHYvb-20" value="&lt;span style=&quot;font-size: 20px&quot;&gt;密接游戏：&lt;br&gt;蓝牙技术判断是否密接&lt;br&gt;LSTM深度学习动作识别&lt;br&gt;&lt;/span&gt;" style="shape=process;whiteSpace=wrap;html=1;backgroundOutline=1;" parent="1" vertex="1">
          <mxGeometry x="1210" y="350" width="290" height="125" as="geometry" />
        </mxCell>
      </root>
    </mxGraphModel>
  </diagram>
</mxfile>
